<svg height="2238" width="720" xmlns="http://www.w3.org/2000/svg">
<rect height="2238" fill="#555" width="720"></rect>
<text fill="#7f7" font-family="Courier New" font-size="12" xml:space="preserve">
<tspan x="10" y="26"></tspan>
<tspan x="10" y="42">&gt; npmdoc-jscs@0.0.1 test /home/travis/build/npmdoc/node-npmdoc-jscs</tspan>
<tspan x="10" y="58">&gt; (set -e; export PORT=$(utility2 shServerPortRandom); utility2 test test.js)</tspan>
<tspan x="10" y="74"></tspan>
<tspan x="10" y="90"></tspan>
<tspan x="10" y="106">[MODE_BUILD=npmTest] - 2017-03-25T11:39:49Z - npm-testing /home/travis/build/npmdoc/node-npmdoc-\</tspan>
<tspan x="10" y="122">jscs</tspan>
<tspan x="10" y="138"></tspan>
<tspan x="10" y="154"></tspan>
<tspan x="10" y="170">covering $ /home/travis/.nvm/versions/node/v7.7.4/bin/node /home/travis/build/npmdoc/node-npmdoc\</tspan>
<tspan x="10" y="186">-jscs/test.js</tspan>
<tspan x="10" y="202">merging file:///home/travis/build/npmdoc/node-npmdoc-jscs/tmp/build/test-report.json to test-rep\</tspan>
<tspan x="10" y="218">ort</tspan>
<tspan x="10" y="234">&gt; server listening on http-port 38368</tspan>
<tspan x="10" y="250">created apidoc file:///home/travis/build/npmdoc/node-npmdoc-jscs/tmp/build/apidoc.html</tspan>
<tspan x="10" y="266"></tspan>
<tspan x="10" y="282"></tspan>
<tspan x="10" y="298">browserTest - created electron entry-page /home/travis/build/npmdoc/node-npmdoc-jscs/tmp/electro\</tspan>
<tspan x="10" y="314">n.15b0543f1440.1fd182edf86d6.html</tspan>
<tspan x="10" y="330"></tspan>
<tspan x="10" y="346">Xlib:  extension "RANDR" missing on display ":99.0".</tspan>
<tspan x="10" y="362">[node test-case 1 of 6 passed] - testCase_buildLib_default</tspan>
<tspan x="10" y="378">[node test-case 2 of 6 passed] - testCase_buildReadme_default</tspan>
<tspan x="10" y="394">[node test-case 3 of 6 passed] - testCase_buildTest_default</tspan>
<tspan x="10" y="410"></tspan>
<tspan x="10" y="426">browserTest - created electron entry-page /home/travis/build/npmdoc/node-npmdoc-jscs/tmp/electro\</tspan>
<tspan x="10" y="442">n.15b0543f27a0.9305f2229a669.html</tspan>
<tspan x="10" y="458"></tspan>
<tspan x="10" y="474">(node:5068) DeprecationWarning: node --debug is deprecated. Please use node --inspect instead.</tspan>
<tspan x="10" y="490">Xlib:  extension "RANDR" missing on display ":99.0".</tspan>
<tspan x="10" y="506"></tspan>
<tspan x="10" y="522">/home/travis/build/npmdoc/node-npmdoc-jscs/node_modules/utility2/lib.utility2.sh.html.js</tspan>
<tspan x="10" y="538"> #1 Line too long.</tspan>
<tspan x="10" y="554">    process.stdout.write('export npm_package_' + key.replace((/\W/g), '_') + '=' + JSON.stringif\</tspan>
<tspan x="10" y="570">y(value) + ';'); // Line 1445, Pos 116</tspan>
<tspan x="10" y="586"></tspan>
<tspan x="10" y="602">merging file:///home/travis/build/npmdoc/node-npmdoc-jscs/tmp/build/test-report.json to test-rep\</tspan>
<tspan x="10" y="618">ort</tspan>
<tspan x="10" y="634">&gt; server listening on http-port 49201</tspan>
<tspan x="10" y="650">Xlib:  extension "RANDR" missing on display ":99.0".</tspan>
<tspan x="10" y="666">[5082:0325/113951:WARNING:audio_manager.cc(314)] Multiple instances of AudioManager detected</tspan>
<tspan x="10" y="682">[5082:0325/113951:WARNING:audio_manager.cc(275)] Multiple instances of AudioManager detected</tspan>
<tspan x="10" y="698">[5127:0325/113951:ERROR:sandbox_linux.cc(343)] InitializeSandbox() called with multiple threads \</tspan>
<tspan x="10" y="714">in process gpu-process. </tspan>
<tspan x="10" y="730">[5082:0325/113951:ERROR:browser_gpu_channel_host_factory.cc(131)] Failed to create channel.</tspan>
<tspan x="10" y="746"></tspan>
<tspan x="10" y="762">/home/travis/build/npmdoc/node-npmdoc-jscs/node_modules/utility2/lib.utility2.sh.html.js</tspan>
<tspan x="10" y="778"> #1 Line too long.</tspan>
<tspan x="10" y="794">    process.stdout.write('export npm_package_' + key.replace((/\W/g), '_') + '=' + JSON.stringif\</tspan>
<tspan x="10" y="810">y(value) + ';'); // Line 1445, Pos 116</tspan>
<tspan x="10" y="826"></tspan>
<tspan x="10" y="842">merging file:///home/travis/build/npmdoc/node-npmdoc-jscs/tmp/build/test-report.json to test-rep\</tspan>
<tspan x="10" y="858">ort</tspan>
<tspan x="10" y="874">Xlib:  extension "RANDR" missing on display ":99.0".</tspan>
<tspan x="10" y="890">[5104:0325/113951:WARNING:audio_manager.cc(314)] Multiple instances of AudioManager detected</tspan>
<tspan x="10" y="906">[5104:0325/113951:WARNING:audio_manager.cc(275)] Multiple instances of AudioManager detected</tspan>
<tspan x="10" y="922">[5160:0325/113951:ERROR:sandbox_linux.cc(343)] InitializeSandbox() called with multiple threads \</tspan>
<tspan x="10" y="938">in process gpu-process. </tspan>
<tspan x="10" y="954"></tspan>
<tspan x="10" y="970">browserTest - opened url file:///home/travis/build/npmdoc/node-npmdoc-jscs/tmp/build/apidoc.html</tspan>
<tspan x="10" y="986"></tspan>
<tspan x="10" y="1002">[5104:0325/113951:ERROR:browser_gpu_channel_host_factory.cc(131)] Failed to create channel.</tspan>
<tspan x="10" y="1018"></tspan>
<tspan x="10" y="1034">browserTest - opened url http://127.0.0.1:38368?modeTest=1</tspan>
<tspan x="10" y="1050"></tspan>
<tspan x="10" y="1066">[5104:0325/113953:INFO:CONSOLE(203)] "----------|-----------|-----------|-----------|-----------\</tspan>
<tspan x="10" y="1082">|</tspan>
<tspan x="10" y="1098">File      |   % Stmts |% Branches |   % Funcs |   % Lines |</tspan>
<tspan x="10" y="1114">----------|-----------|-----------|-----------|-----------|</tspan>
<tspan x="10" y="1130">----------|-----------|-----------|-----------|-----------|</tspan>
<tspan x="10" y="1146">All files |       100 |       100 |       100 |       100 |</tspan>
<tspan x="10" y="1162">----------|-----------|-----------|-----------|-----------|</tspan>
<tspan x="10" y="1178">", source: file:///home/travis/build/npmdoc/node-npmdoc-jscs/tmp/electron.15b0543f27a0.9305f2229\</tspan>
<tspan x="10" y="1194">a669.html (203)</tspan>
<tspan x="10" y="1210">[5104:0325/113953:INFO:CONSOLE(203)] "created coverage file:///tmp/build/coverage.html/index.htm\</tspan>
<tspan x="10" y="1226">l", source: file:///home/travis/build/npmdoc/node-npmdoc-jscs/tmp/electron.15b0543f27a0.9305f222\</tspan>
<tspan x="10" y="1242">9a669.html (203)</tspan>
<tspan x="10" y="1258">[node test-case 4 of 6 passed] - testCase_buildApp_default</tspan>
<tspan x="10" y="1274"></tspan>
<tspan x="10" y="1290">browserTest - created screen-capture file:///home/travis/build/npmdoc/node-npmdoc-jscs/tmp/build\</tspan>
<tspan x="10" y="1306">/screen-capture.npmTest.browser._2Fhome_2Ftravis_2Fbuild_2Fnpmdoc_2Fnode-npmdoc-jscs_2Ftmp_2Fbui\</tspan>
<tspan x="10" y="1322">ld_2Fapidoc.html.png</tspan>
<tspan x="10" y="1338"></tspan>
<tspan x="10" y="1354"></tspan>
<tspan x="10" y="1370">browserTest - exit-code 0 - file:///home/travis/build/npmdoc/node-npmdoc-jscs/tmp/build/apidoc.h\</tspan>
<tspan x="10" y="1386">tml</tspan>
<tspan x="10" y="1402"></tspan>
<tspan x="10" y="1418">[node test-case 5 of 6 passed] - testCase_buildApidoc_default</tspan>
<tspan x="10" y="1434"></tspan>
<tspan x="10" y="1450">browserTest - created screen-capture file:///home/travis/build/npmdoc/node-npmdoc-jscs/tmp/build\</tspan>
<tspan x="10" y="1466">/screen-capture.npmTest.browser..png</tspan>
<tspan x="10" y="1482"></tspan>
<tspan x="10" y="1498"></tspan>
<tspan x="10" y="1514">browserTest - exit-code 0 - http://127.0.0.1:38368?modeTest=1</tspan>
<tspan x="10" y="1530"></tspan>
<tspan x="10" y="1546"></tspan>
<tspan x="10" y="1562">browserTest - merged coverage from /home/travis/build/npmdoc/node-npmdoc-jscs/tmp/coverage.npmTe\</tspan>
<tspan x="10" y="1578">st.browser.%2F.json</tspan>
<tspan x="10" y="1594"></tspan>
<tspan x="10" y="1610"></tspan>
<tspan x="10" y="1626">browserTest - merging test-report from /home/travis/build/npmdoc/node-npmdoc-jscs/tmp/test-repor\</tspan>
<tspan x="10" y="1642">t.npmTest.browser.%2F.json</tspan>
<tspan x="10" y="1658"></tspan>
<tspan x="10" y="1674">[node test-case 6 of 6 passed] - testCase_webpage_default</tspan>
<tspan x="10" y="1690">-------------------------|-----------|-----------|-----------|-----------|</tspan>
<tspan x="10" y="1706">File                     |   % Stmts |% Branches |   % Funcs |   % Lines |</tspan>
<tspan x="10" y="1722">-------------------------|-----------|-----------|-----------|-----------|</tspan>
<tspan x="10" y="1738">   node-npmdoc-jscs/     |       100 |       100 |       100 |       100 |</tspan>
<tspan x="10" y="1754">      example.js         |       100 |       100 |       100 |       100 |</tspan>
<tspan x="10" y="1770">      lib.npmdoc_jscs.js |       100 |       100 |       100 |       100 |</tspan>
<tspan x="10" y="1786">      test.js            |       100 |       100 |       100 |       100 |</tspan>
<tspan x="10" y="1802">-------------------------|-----------|-----------|-----------|-----------|</tspan>
<tspan x="10" y="1818">All files                |       100 |       100 |       100 |       100 |</tspan>
<tspan x="10" y="1834">-------------------------|-----------|-----------|-----------|-----------|</tspan>
<tspan x="10" y="1850"></tspan>
<tspan x="10" y="1866">created coverage file:///home/travis/build/npmdoc/node-npmdoc-jscs/tmp/build/coverage.html/index\</tspan>
<tspan x="10" y="1882">.html</tspan>
<tspan x="10" y="1898"></tspan>
<tspan x="10" y="1914">/home/travis/build/npmdoc/node-npmdoc-jscs/node_modules/utility2/lib.utility2.sh.html.js</tspan>
<tspan x="10" y="1930"> #1 Line too long.</tspan>
<tspan x="10" y="1946">    process.stdout.write('export npm_package_' + key.replace((/\W/g), '_') + '=' + JSON.stringif\</tspan>
<tspan x="10" y="1962">y(value) + ';'); // Line 1445, Pos 116</tspan>
<tspan x="10" y="1978"></tspan>
<tspan x="10" y="1994">merging file:///home/travis/build/npmdoc/node-npmdoc-jscs/tmp/build/test-report.json to test-rep\</tspan>
<tspan x="10" y="2010">ort</tspan>
<tspan x="10" y="2026"></tspan>
<tspan x="10" y="2042">-------------------------------------------------------</tspan>
<tspan x="10" y="2058">| test-report - buildNpmdoc - node - linux v7.7.4 - 2017-03-25T11:39:39.598Z</tspan>
<tspan x="10" y="2074">|   16620 ms            0 failed        6 passed      |</tspan>
<tspan x="10" y="2090">-------------------------------------------------------</tspan>
<tspan x="10" y="2106"></tspan>
<tspan x="10" y="2122">created test-report file:///home/travis/build/npmdoc/node-npmdoc-jscs/tmp/build/test-report.html</tspan>
<tspan x="10" y="2138"></tspan>
<tspan x="10" y="2154"></tspan>
<tspan x="10" y="2170">npmTest - 0 failed tests</tspan>
<tspan x="10" y="2186"></tspan>
<tspan x="10" y="2202"></tspan>
<tspan x="10" y="2218">[MODE_BUILD=npmTest] - 2017-03-25T11:39:58Z - EXIT_CODE - 0</tspan>
</text>
</svg>
